<svg width="91" height="25" fill="none" xmlns="http://www.w3.org/2000/svg"><path d="M16.608 20.756l-.026-13.05-6.474 10.875H8.931L2.457 7.782v12.974H0V2.843h2.098l7.473 12.59 7.37-12.59h2.098l.026 17.913h-2.457zM37.44 18.53v2.226h-13V2.843h12.642V5.07H27v5.502h8.982v2.175H27v5.783h10.44zM68.057 3.048h2.559v17.913h-2.56V3.048zm20.333 8.854h2.456v6.986c-.887.734-1.919 1.297-3.096 1.69a11.576 11.576 0 01-3.685.588c-1.808 0-3.438-.393-4.888-1.177-1.45-.802-2.593-1.894-3.429-3.276-.819-1.399-1.228-2.968-1.228-4.708 0-1.74.41-3.31 1.228-4.709a8.796 8.796 0 013.43-3.276c1.466-.784 3.113-1.177 4.938-1.177 1.433 0 2.73.24 3.89.717A7.822 7.822 0 0191 5.607l-1.587 1.587C87.98 5.812 86.25 5.12 84.22 5.12c-1.365 0-2.594.298-3.685.895A6.38 6.38 0 0078 8.473c-.614 1.04-.921 2.218-.921 3.532 0 1.296.307 2.473.921 3.531a6.615 6.615 0 002.534 2.457c1.091.597 2.311.895 3.659.895 1.604 0 3.002-.384 4.197-1.151v-5.835z" fill="#130F26"/><path fill-rule="evenodd" clip-rule="evenodd" d="M49.204 0h-7.82v18.482h5.687v5.686h7.82a9.24 9.24 0 009.24-9.24 9.246 9.246 0 00-6.199-8.729A9.245 9.245 0 0049.204 0zm8.728 6.199a9.227 9.227 0 00-3.041-.512h-7.82v12.795h2.133a9.24 9.24 0 008.728-12.283z" fill="#15CCA0"/></svg>