<svg width="40" height="40" viewBox="0 0 40 40" fill="none" xmlns="http://www.w3.org/2000/svg">
<path fill-rule="evenodd" clip-rule="evenodd" d="M20 40C31.0457 40 40 31.0457 40 20C40 8.9543 31.0457 0 20 0C8.9543 0 0 8.9543 0 20C0 31.0457 8.9543 40 20 40ZM28.5303 19.4697L23.7574 14.6967C23.4645 14.4038 22.9896 14.4038 22.6967 14.6967C22.4038 14.9896 22.4038 15.4645 22.6967 15.7574L26.1893 19.25H12V20.75H26.1893L22.6967 24.2426C22.4038 24.5355 22.4038 25.0104 22.6967 25.3033C22.9896 25.5962 23.4645 25.5962 23.7574 25.3033L28.5303 20.5303C28.8232 20.2374 28.8232 19.7626 28.5303 19.4697Z" fill="#15CCA0"/>
</svg>
