<svg width="91" height="25" viewBox="0 0 91 25" fill="none" xmlns="http://www.w3.org/2000/svg">
<path d="M16.6079 20.7563L16.5823 7.70544L10.1081 18.5812H8.93091L2.45664 7.78221V20.7563H0V2.84334H2.09838L9.57066 15.4336L16.9406 2.84334H19.039L19.0646 20.7563H16.6079Z" fill="#130F26"/>
<path d="M37.4402 18.53V20.7563H24.4405V2.84334H37.0819V5.06967H26.9995V10.5715H35.9816V12.7467H26.9995V18.53H37.4402Z" fill="#130F26"/>
<path d="M68.0566 3.04806H70.6156V20.9611H68.0566V3.04806Z" fill="#130F26"/>
<path d="M88.3897 11.9022H90.8463V18.8883C89.9592 19.6219 88.9271 20.1848 87.75 20.5772C86.5728 20.9696 85.3445 21.1658 84.065 21.1658C82.2566 21.1658 80.6274 20.7734 79.1773 19.9886C77.7272 19.1868 76.5842 18.095 75.7482 16.7131C74.9294 15.3142 74.5199 13.7447 74.5199 12.0046C74.5199 10.2644 74.9294 8.69492 75.7482 7.296C76.5842 5.89708 77.7272 4.80524 79.1773 4.02048C80.6445 3.23572 82.2908 2.84334 84.1162 2.84334C85.5492 2.84334 86.8458 3.08218 88.0059 3.55986C89.183 4.02048 90.181 4.70288 90.9999 5.60706L89.4133 7.19364C87.9803 5.81178 86.2487 5.12085 84.2185 5.12085C82.8537 5.12085 81.6254 5.4194 80.5336 6.0165C79.4588 6.59654 78.6143 7.41542 78.0002 8.47314C77.386 9.5138 77.0789 10.6909 77.0789 12.0046C77.0789 13.3011 77.386 14.4783 78.0002 15.536C78.6143 16.5766 79.4588 17.3955 80.5336 17.9926C81.6254 18.5897 82.8452 18.8883 84.1929 18.8883C85.7966 18.8883 87.1955 18.5044 88.3897 17.7367V11.9022Z" fill="#130F26"/>
<path fill-rule="evenodd" clip-rule="evenodd" d="M49.2039 0H41.3848V18.4817H47.0714V24.1683H54.8906C59.9942 24.1683 64.1314 20.0311 64.1314 14.9275C64.1314 10.8896 61.5416 7.45666 57.9324 6.199C56.6748 2.58982 53.2418 0 49.2039 0ZM57.9324 6.199C56.9799 5.86707 55.9563 5.68667 54.8906 5.68667H47.0714V18.4817H49.2039C54.3075 18.4817 58.4448 14.3444 58.4448 9.24084C58.4448 8.17513 58.2644 7.15156 57.9324 6.199Z" fill="#15CCA0"/>
</svg>
