<?xml version="1.0" standalone="no"?>
<!DOCTYPE svg PUBLIC "-//W3C//DTD SVG 20010904//EN"
 "http://www.w3.org/TR/2001/REC-SVG-20010904/DTD/svg10.dtd">
<svg version="1.0" xmlns="http://www.w3.org/2000/svg"
 width="186.000000pt" height="186.000000pt" viewBox="0 0 186.000000 186.000000"
 preserveAspectRatio="xMidYMid meet">
<metadata>
Created by potrace 1.14, written by Peter Selinger 2001-2017
</metadata>
<g transform="translate(0.000000,186.000000) scale(0.100000,-0.100000)"
fill="#000000" stroke="none">
<path d="M230 1095 l0 -535 175 0 175 0 0 -165 0 -165 278 0 c301 0 358 7 455
56 401 203 411 733 17 943 l-83 44 7 -29 c14 -58 18 -212 7 -264 -40 -186
-208 -353 -407 -404 -38 -10 -104 -16 -168 -16 l-106 0 0 370 0 370 263 0
c183 0 282 -5 327 -14 36 -8 67 -12 68 -11 10 10 -65 127 -110 174 -151 154
-245 181 -639 181 l-259 0 0 -535z"/>
</g>
</svg>
